<svg xmlns="http://www.w3.org/2000/svg" xmlns:xlink="http://www.w3.org/1999/xlink" viewBox="0 0 154.5 154.5" height="154.5" width="154.5" data-background-color="#f2f0e4" preserveAspectRatio="xMidYMid meet" id="tight-bounds"><g><svg/></g><g><svg viewBox="0 0 154.5 154.5" height="154.5" width="154.5"><g transform="matrix(1,0,0,1,53.6470968,58.28489026768429)"><svg viewBox="0 0 47.2058064 37.93021946463142" height="37.93021946463142" width="47.2058064"><g><svg viewBox="0 0 47.2058064 37.93021946463142" height="37.93021946463142" width="47.2058064"><g><svg viewBox="0 0 47.2058064 37.93021946463142" height="37.93021946463142" width="47.2058064"><g id="textblocktransform"><svg viewBox="0 0 47.2058064 37.93021946463142" height="37.93021946463142" width="47.2058064" id="textblock"><g><svg viewBox="0 0 47.2058064 37.93021946463142" height="37.93021946463142" width="47.2058064"><g><svg viewBox="0 0 47.2058064 37.93021946463142" height="37.93021946463142" width="47.2058064"><g><svg xmlns="http://www.w3.org/2000/svg" xmlns:xlink="http://www.w3.org/1999/xlink" version="1.1" x="0" y="0" viewBox="10.490942001342773 18.49341583251953 77.6764907836914 62.41364288330078" enable-background="new 0 0 100 100" xml:space="preserve" height="37.93021946463142" width="47.2058064" class="icon-icon-0" data-fill-palette-color="accent" id="icon-0" fill="#ffffff"><path d="M87.794 23.362A1.27 1.27 0 0 0 85.996 23.362L34.714 74.645A12.62 12.62 0 0 1 25.734 78.364C22.342 78.364 19.153 77.044 16.755 74.645S13.035 69.057 13.035 65.666A12.62 12.62 0 0 1 16.755 56.684L41.953 31.488A1.272 1.272 0 1 0 40.154 29.689L14.956 54.884A15.15 15.15 0 0 0 10.491 65.665 15.14 15.14 0 0 0 14.956 76.443 15.14 15.14 0 0 0 25.734 80.907C29.806 80.907 33.634 79.322 36.512 76.443L87.794 25.161A1.27 1.27 0 0 0 87.794 23.362" fill="#ffffff" data-fill-palette-color="accent"/><path d="M41.244 42.537A1.267 1.267 0 0 0 43.042 42.537L63.089 22.49A1.272 1.272 0 1 0 61.29 20.692L41.244 40.738A1.27 1.27 0 0 0 41.244 42.537" fill="#ffffff" data-fill-palette-color="accent"/><path d="M59.463 39.103A1.27 1.27 0 0 0 61.261 39.103L79.7 20.665A1.272 1.272 0 1 0 77.901 18.866L59.463 37.305A1.27 1.27 0 0 0 59.463 39.103" fill="#ffffff" data-fill-palette-color="accent"/><path d="M26.422 55.436A9.47 9.47 0 0 0 19.677 58.231 9.47 9.47 0 0 0 16.883 64.974C16.883 67.522 17.876 69.918 19.677 71.721S23.874 74.516 26.422 74.516 31.366 73.523 33.168 71.721A9.48 9.48 0 0 0 35.962 64.974 9.48 9.48 0 0 0 33.168 58.231 9.47 9.47 0 0 0 26.422 55.436M31.37 69.922A6.95 6.95 0 0 1 26.423 71.971 6.95 6.95 0 0 1 21.477 69.922 6.95 6.95 0 0 1 19.428 64.974C19.428 63.106 20.156 61.35 21.477 60.03A6.95 6.95 0 0 1 26.423 57.98C28.292 57.98 30.049 58.708 31.37 60.03A6.94 6.94 0 0 1 33.419 64.974C33.419 66.844 32.691 68.6 31.37 69.922" fill="#ffffff" data-fill-palette-color="accent"/><circle cx="25.846" cy="62.541" r="1.708" fill="#ffffff" data-fill-palette-color="accent"/><circle cx="23.171" cy="66.22" r="0.71" fill="#ffffff" data-fill-palette-color="accent"/><path d="M29.949 63.238A0.71 0.71 0 0 0 29.949 64.245 0.71 0.71 0 0 0 30.953 64.242 0.707 0.707 0 0 0 30.953 63.241 0.71 0.71 0 0 0 29.949 63.238" fill="#ffffff" data-fill-palette-color="accent"/><circle cx="28.053" cy="68.147" r="0.71" fill="#ffffff" data-fill-palette-color="accent"/><path d="M54.361 46.487A1.196 1.196 0 1 0 56.052 48.183 1.196 1.196 0 0 0 54.361 46.487" fill="#ffffff" data-fill-palette-color="accent"/><circle cx="82.791" cy="35.342" r="0.71" fill="#ffffff" data-fill-palette-color="accent"/><circle cx="70.821" cy="22.367" r="0.711" fill="#ffffff" data-fill-palette-color="accent"/><circle cx="53.264" cy="39.2" r="0.71" fill="#ffffff" data-fill-palette-color="accent"/><circle cx="48.57" cy="28.016" r="0.71" fill="#ffffff" data-fill-palette-color="accent"/><path d="M35.315 45.985C35.755 45.545 35.755 44.832 35.315 44.393A1.127 1.127 0 1 0 35.315 45.985" fill="#ffffff" data-fill-palette-color="accent"/><path d="M37.979 58.993A1.127 1.127 0 1 0 39.571 60.588 1.127 1.127 0 0 0 37.98 58.993" fill="#ffffff" data-fill-palette-color="accent"/><path d="M19.588 46.447A1.127 1.127 0 1 0 17.994 44.857 1.127 1.127 0 0 0 19.588 46.448" fill="#ffffff" data-fill-palette-color="accent"/><path d="M68.553 46.392A1.127 1.127 0 1 0 70.145 47.985 1.127 1.127 0 0 0 68.553 46.392" fill="#ffffff" data-fill-palette-color="accent"/></svg></g></svg></g></svg></g></svg></g></svg></g></svg></g></svg></g><g><path xmlns="http://www.w3.org/2000/svg" d="M0 154.5v-154.5h154.5v154.5zM151.079 151.079v-147.658h-147.658v147.658z" fill="#ffffff" fill-rule="nonzero" stroke="none" stroke-width="1" stroke-linecap="butt" stroke-linejoin="miter" stroke-miterlimit="10" stroke-dasharray="" stroke-dashoffset="0" font-family="none" font-weight="none" font-size="none" text-anchor="none" style="mix-blend-mode: normal" data-fill-palette-color="tertiary"/></g></svg></g><defs/></svg>